# xmcd
#
# Track frame offsets:
#	150
#	10142
#	23472
#	37596
#	54918
#	71412
#	94752
#	105442
#	118924
#	133195
#	144199
#	157320
#	168724
#	181967
#	196884
#	210426
#	225303
#	237583
#
# Disc length: 3338 seconds
#
# Revision: 0
# Processed by: cddbd v1.5.2PL0 Copyright (c) Steve Scherf et al.
# Submitted via: EasyCDDAExtractor 16.0.6.1
#
DISCID=e50d0812
DTITLE=Μπίνης Τάκης - Ρεμπέτικα πορτρέτα 2-4 Μπίνης Τάκης
DYEAR=2010
DGENRE=Ρεμπέτικη
TTITLE0=Το καρφί δε θα γλιτώσει [Τάκης Μπίνης]
TTITLE1=Ζούλα, αβέρτα, φανερά [Τάκης Μπίνης]
TTITLE2=Ντουμάνιασε ο ουρανός [Τάκης Μπίνης]
TTITLE3=Σέρνουμε στα ξένα [Τάκης Μπίνης]
TTITLE4=Αν μού φερθείς ανάλογα [Τάκης Μπίνης]
TTITLE5=Όνειρα ναυαγισμένα [Τάκης Μπίνης]
TTITLE6=Τώρα θ' αλλάξω πια βιολί [Τάκης Μπίνης]
TTITLE7=Ψιλοβελονιά δουλεύεις [Τάκης Μπίνης]
TTITLE8=Σαν δε κοιτάς την τύφλα σου [Τάκης Μπίνης]
TTITLE9=Γλυκειά σατράπισσα [Τάκης Μπίνης]
TTITLE10=Πιοτό, παρανομία και ξενύχτι [Τάκης Μπίνης]
TTITLE11=Κουτσά, στραβά κι ανάποδα [Τάκης Μπίνης]
TTITLE12=Ό,τι θέλεις, όπου θέλεις και στην κόλαση [Τάκης Μπίνης]
TTITLE13=Στου Πειραιά το λιμάνι [Τάκης Μπίνης]
TTITLE14=Πάτερ ημών [Κ. Καπλάνης-Ά. Δασκαλόπουλος]
TTITLE15=Στα μονοπάτια της ζωής [Κ. Καπλάνης-Ευγενία Δρούζα]
TTITLE16=Βρήκα ξύλο [Κ. Καπλάνης-Βασ. Νούσιος]
TTITLE17=Στης γειτονιάς τις σκάλες [Κ. Καπλάνης-Γ. Μητσάκης]
EXTD=
EXTT0=
EXTT1=
EXTT2=
EXTT3=
EXTT4=
EXTT5=
EXTT6=
EXTT7=
EXTT8=
EXTT9=
EXTT10=
EXTT11=
EXTT12=
EXTT13=
EXTT14=
EXTT15=
EXTT16=
EXTT17=
PLAYORDER=
